<svg id="그룹_18520" data-name="그룹 18520" xmlns="http://www.w3.org/2000/svg" xmlns:xlink="http://www.w3.org/1999/xlink" width="260" height="200" viewBox="0 0 260 200">
  <defs>
    <clipPath id="clip-path">
      <rect id="사각형_148697" data-name="사각형 148697" width="260" height="200" fill="none"/>
    </clipPath>
  </defs>
  <g id="그룹_18519" data-name="그룹 18519" clip-path="url(#clip-path)">
    <path id="패스_7718" data-name="패스 7718" d="M2.452,41A2.452,2.452,0,0,1,0,38.549V24.066A24.093,24.093,0,0,1,24.066,0H38.549a2.452,2.452,0,1,1,0,4.9H24.066A19.183,19.183,0,0,0,4.9,24.066V38.549A2.452,2.452,0,0,1,2.452,41" fill="#fff"/>
    <path id="패스_7719" data-name="패스 7719" d="M168.263,41a2.452,2.452,0,0,0,2.452-2.452V24.066A24.093,24.093,0,0,0,146.649,0H132.166a2.452,2.452,0,0,0,0,4.9h14.484a19.183,19.183,0,0,1,19.162,19.162V38.549A2.452,2.452,0,0,0,168.263,41" transform="translate(89.285)" fill="#fff"/>
    <path id="패스_7720" data-name="패스 7720" d="M2.452,129.714A2.452,2.452,0,0,0,0,132.166v14.484a24.093,24.093,0,0,0,24.066,24.066H38.549a2.452,2.452,0,0,0,0-4.9H24.066A19.183,19.183,0,0,1,4.9,146.649V132.166a2.452,2.452,0,0,0-2.452-2.452" transform="translate(0 29.285)" fill="#fff"/>
    <path id="패스_7721" data-name="패스 7721" d="M168.263,129.714a2.452,2.452,0,0,1,2.452,2.452v14.484a24.093,24.093,0,0,1-24.066,24.066H132.166a2.452,2.452,0,0,1,0-4.9h14.484a19.183,19.183,0,0,0,19.162-19.162V132.166a2.452,2.452,0,0,1,2.452-2.452" transform="translate(89.285 29.285)" fill="#fff"/>
  </g>
</svg>
